<?xml version="1.0" encoding="iso-8859-1"?>
<!-- Generator: Adobe Illustrator 19.0.0, SVG Export Plug-In . SVG Version: 6.00 Build 0)  -->
<!-- License: CC0 License. https://www.svgrepo.com/svg/269827/basketball-player  -->
<svg fill="#fff" fill-opacity="0.87" version="1.1" id="Layer_1" xmlns="http://www.w3.org/2000/svg" xmlns:xlink="http://www.w3.org/1999/xlink" x="0px" y="0px"
	 viewBox="0 0 512.001 512.001" style="enable-background:new 0 0 512.001 512.001;" xml:space="preserve">
<g>
	<g>
		<path d="M195.834,28.959c0.501,2.989,0.776,6.056,0.776,9.186c0,3.369-0.319,6.662-0.897,9.865l35.141,8.057
			c5.218-6.752,12.019-12.215,19.845-15.834C194.337,28.33,198.258,29.03,195.834,28.959z"/>
	</g>
</g>
<g>
	<g>
		<path d="M392.774,307.926l-76.194-26.759V163.373l33.577-80.045c4.413-10.52-1.849-22.481-13.019-24.839l-24.378-5.148
			c8.295,9.381,13.345,21.695,13.345,35.174c0,29.558-24.137,53.171-53.171,53.171c-4.659,0-9.379-0.66-13.492-1.739
			c-0.042,1.334-0.344,10.794-0.386,12.118l-16.467-63.482c-1.706-6.573-6.927-11.648-13.546-13.166l-78.011-17.886
			c-9.8-2.248-19.555,3.873-21.8,13.668c-2.245,9.794,3.875,19.553,13.668,21.799l67.24,15.415
			c1.841,7.096,13.613,52.479,15.364,59.232c0,0.025-0.002,0.048-0.002,0.073l-0.021,151.765l6.766,62.272l-88.481,89.14
			c-9.383,9.452-9.326,24.722,0.127,34.105c9.452,9.381,24.72,9.327,34.105-0.127l96.413-97.13
			c5.028-5.064,7.554-12.096,6.898-19.203l-6.539-70.937l75.406,26.482l-49.578,92.064c-6.315,11.727-1.929,26.352,9.798,32.667
			c11.73,6.317,26.355,1.924,32.667-9.798l62.955-116.904C413.034,329.08,406.747,312.832,392.774,307.926z"/>
	</g>
</g>
<g>
	<g>
		<path d="M272.934,51.398c-9.552,0-18.258,3.61-24.837,9.537c8.286,4.454,13.448,13.31,13.138,22.811l-1.263,39.557
			c4.035,1.505,8.401,2.331,12.961,2.331c20.5,0,37.118-16.618,37.118-37.117S293.434,51.398,272.934,51.398z"/>
	</g>
</g>
<g>
	<g>
		<path d="M141.241,0c-21.067,0-38.146,17.079-38.146,38.144c0,9.211,3.265,17.659,8.7,24.25
			c6.377-17.492,24.925-27.91,43.542-23.641l23.573,5.404c0.31-1.959,0.476-3.966,0.476-6.013C179.385,17.079,162.308,0,141.241,0z"
			/>
	</g>
</g>
<g>
</g>
<g>
</g>
<g>
</g>
<g>
</g>
<g>
</g>
<g>
</g>
<g>
</g>
<g>
</g>
<g>
</g>
<g>
</g>
<g>
</g>
<g>
</g>
<g>
</g>
<g>
</g>
<g>
</g>
</svg>
